<?xml version="1.0" encoding="UTF-8" standalone="no"?>
<!-- Created with Inkscape (http://www.inkscape.org/) -->

<svg
   width="84.666687mm"
   height="84.666687mm"
   viewBox="0 0 84.666687 84.666687"
   version="1.1"
   id="svg264479"
   xmlns="http://www.w3.org/2000/svg"
   xmlns:svg="http://www.w3.org/2000/svg">
  <defs
     id="defs264476" />
  <g
     id="layer1"
     transform="translate(-472.81044,-223.5729)">
    <rect
       style="fill:none;fill-opacity:1;stroke:none;stroke-width:0.529167;stroke-linecap:square;stroke-linejoin:bevel;stroke-dasharray:none;stroke-opacity:1;paint-order:stroke fill markers"
       id="rect300112-9-5"
       width="84.666672"
       height="84.666664"
       x="472.81042"
       y="223.57291"
       ry="0" />
    <g
       id="g303658">
      <ellipse
         style="fill:none;fill-opacity:1;stroke:#4d4d4d;stroke-width:0.529167;stroke-linecap:square;stroke-linejoin:bevel;stroke-dasharray:none;stroke-opacity:1;paint-order:stroke fill markers"
         id="path297071-0-9-0"
         cx="518.07214"
         cy="266.388"
         rx="6.8224707"
         ry="9.6572914" />
      <ellipse
         style="fill:none;fill-opacity:1;stroke:#4d4d4d;stroke-width:0.529167;stroke-linecap:square;stroke-linejoin:bevel;stroke-dasharray:none;stroke-opacity:1;paint-order:stroke fill markers"
         id="path297071-0-1-44-6"
         cx="518.07214"
         cy="266.388"
         rx="4.9325895"
         ry="7.0114584" />
      <ellipse
         style="fill:none;fill-opacity:1;stroke:#4d4d4d;stroke-width:0.529167;stroke-linecap:square;stroke-linejoin:bevel;stroke-dasharray:none;stroke-opacity:1;paint-order:stroke fill markers"
         id="path297071-0-1-4-0-9"
         cx="518.07214"
         cy="266.388"
         rx="3.0427084"
         ry="4.3656249" />
      <g
         id="g303641">
        <g
           aria-label="Hop"
           transform="matrix(0.26458333,0,0,0.26458333,459.88923,88.042499)"
           id="text264706-8-27-6-2"
           style="font-size:200px;letter-spacing:-23px;white-space:pre;fill:#4d4d4d">
          <path
             d="m 61.546875,713.94263 -0.125,-131.03907 h 18.945312 v 58.78907 h 74.414063 v -58.78907 h 18.94531 V 726.06763 H 154.78125 V 658.58716 H 80.367187 l -0.25,63.35547 z"
             style="-inkscape-font-specification:arial;fill:#4d4d4d"
             id="path277827-4-8-7" />
          <path
             d="m 171.48047,674.21216 q 0,-28.8086 16.01562,-42.67578 13.37891,-11.52344 32.61719,-11.52344 21.38672,0 34.96094,14.0625 13.57422,13.96484 13.57422,38.67187 0,20.01953 -6.05469,31.54297 -5.95703,11.42578 -17.48047,17.77344 -11.42578,6.34766 -25,6.34766 -21.77734,0 -35.25391,-13.96485 -13.3789,-13.96484 -13.3789,-40.23437 z m 18.0664,0 q 0,19.92187 8.69141,29.88281 8.69141,9.86328 21.875,9.86328 13.08594,0 21.77734,-9.96094 8.69141,-9.96093 8.69141,-30.37109 0,-19.23828 -8.78906,-29.10156 -8.69141,-9.96094 -21.67969,-9.96094 -13.18359,0 -21.875,9.86328 -8.69141,9.86328 -8.69141,29.78516 z"
             style="-inkscape-font-specification:arial;fill:#4d4d4d"
             id="path277829-7-3-3" />
          <path
             d="m 266.37891,763.68872 -0.125,-141.33203 h 16.01562 v 13.47656 c 3.77604,-5.27344 8.04036,-9.21224 12.79297,-11.81641 4.75261,-2.66927 10.51433,-4.0039 17.28516,-4.0039 8.85417,0 16.66667,2.27865 23.4375,6.83594 6.77083,4.55729 11.88151,11.0026 15.33203,19.33593 3.45052,8.26823 5.17578,17.35027 5.17578,27.2461 0,10.61198 -1.92057,20.18229 -5.76172,28.71093 -3.77604,8.46355 -9.30989,14.97396 -16.60156,19.53125 -7.22657,4.49219 -14.84376,6.73829 -22.85157,6.73829 -5.85937,0 -11.13281,-1.23698 -15.82031,-3.71094 -4.62239,-2.47396 -8.43099,-5.59896 -11.42578,-9.375 l 0.0103,45.66394 -0.18708,3.2691 z m 15.79296,-88.89063 c 0,13.34636 2.70182,23.20964 8.10547,29.58985 5.40365,6.38021 11.94662,9.57031 19.62891,9.57031 7.8125,0 14.48568,-3.28776 20.01953,-9.86328 5.59896,-6.64063 8.39844,-16.89453 8.39844,-30.76172 0,-13.21615 -2.73438,-23.11198 -8.20313,-29.6875 -5.40365,-6.57552 -11.88151,-9.86328 -19.43359,-9.86328 -7.48698,0 -14.12761,3.51562 -19.92188,10.54687 -5.72917,6.96615 -8.59375,17.1224 -8.59375,30.46875 z"
             style="-inkscape-font-specification:arial;fill:#4d4d4d"
             id="path277831-4-6-2" />
        </g>
        <g
           aria-label="I"
           transform="matrix(0.84227436,0,0,1.1872616,339.9298,3.6418148)"
           id="text264718-95-0-6-8"
           style="font-size:62.8259px;fill:#4d4d4d;stroke-width:0.264583">
          <path
             d="m 191.04458,237.60664 v -37.2001 l 5.95129,0.4457 v 37.67366 z"
             style="-inkscape-font-specification:Arial;fill:#4d4d4d"
             id="path277817-1-8-1" />
        </g>
        <g
           aria-label="I"
           transform="matrix(0.91451803,0,0,1.0934722,339.9298,3.6418148)"
           id="text264718-9-4-15-7-0"
           style="font-size:57.863px;fill:#4d4d4d;stroke-width:0.264583">
          <path
             d="m 148.94255,250.36116 v -32.98093 l 5.51732,-0.45369 v 35.43084 z"
             style="-inkscape-font-specification:Arial;fill:#4d4d4d"
             id="path277822-1-3-2" />
        </g>
        <path
           style="fill:none;stroke:#4d4d4d;stroke-width:1.5875;stroke-linecap:butt;stroke-linejoin:miter;stroke-dasharray:none;stroke-opacity:1"
           d="m 500.92279,242.4241 c 18.70395,1.11861 31.64922,6.09963 44.79256,10.9478"
           id="path277894-9-3-0" />
        <path
           style="fill:none;stroke:#4d4d4d;stroke-width:1.5875;stroke-linecap:butt;stroke-linejoin:miter;stroke-dasharray:none;stroke-opacity:1"
           d="m 476.46922,276.65601 c 14.32028,6.79177 29.8105,12.20204 58.4773,13.5186"
           id="path282252-4-7-6" />
      </g>
      <ellipse
         style="fill:#4d4d4d;fill-opacity:1;stroke:#4d4d4d;stroke-width:0.529167;stroke-linecap:square;stroke-linejoin:bevel;stroke-dasharray:none;stroke-opacity:1;paint-order:stroke fill markers"
         id="path297071-9-2"
         cx="518.07214"
         cy="266.388"
         rx="1.2092409"
         ry="1.7197915" />
    </g>
  </g>
</svg>
